<svg width="646" height="569" viewBox="0 0 46 39" fill="none" xmlns="http://www.w3.org/2000/svg">
<g id="xbox">
<g id="Group">
<path id="Shape_5" d="M8.78531 2.25921C10.3127 2.44455 12.195 3.12308 14.3801 4.27601C14.5181 4.34888 14.6872 4.35093 14.8296 4.27471C16.9839 3.12159 18.8542 2.43953 20.3887 2.24731C20.8599 2.1882 20.9616 1.55076 20.5294 1.35166C16.8276 -0.352648 12.5777 -0.464186 8.64131 1.36412C8.44931 1.45335 8.34 1.65783 8.37337 1.86548C8.40675 2.07313 8.57475 2.23374 8.78531 2.25921Z" fill="#8DD83D"/>
<path id="Shape_6" d="M24.5419 23.8049C24.5168 23.6231 23.823 19.2709 14.8607 11.9246C14.6871 11.7824 14.4366 11.7801 14.2607 11.9196C6.36675 18.1687 3.55406 24.1462 4.84388 25.2475C7.89244 27.8545 10.8092 28.9669 14.5969 28.9669C18.7131 28.9669 21.3221 27.5976 24.1982 25.3878C24.7532 24.961 24.5516 23.859 24.5456 23.8281L24.5419 23.8049Z" fill="#8DD83D"/>
<path id="Shape_7" d="M24.6189 4.19905C23.0126 3.94344 19.9815 6.64583 18.8068 7.7772C18.6311 7.94637 18.6139 8.22038 18.7667 8.41C24.5439 15.5717 26.0053 19.6611 26.214 21.8303C26.2335 22.0322 26.3811 22.1993 26.5802 22.245C26.7814 22.2911 26.9871 22.2034 27.093 22.0322C28.4829 19.7851 29.2176 17.1845 29.2176 14.5117C29.2179 8.61467 25.1492 4.28326 24.6189 4.19905Z" fill="#8DD83D"/>
<path id="Shape_8" d="M10.4025 7.77739C7.0365 4.53478 5.355 4.18474 4.78819 4.18474C4.71769 4.18474 4.6515 4.18957 4.59131 4.19924C4.49306 4.21485 4.4025 4.26058 4.33181 4.32992C-0.369189 8.94948 -1.45388 16.261 2.11706 22.0328C2.20481 22.1746 2.3595 22.2579 2.52244 22.2579C2.76787 22.2579 2.97281 22.0729 2.99606 21.8311C3.20456 19.6616 4.66594 15.5723 10.4426 8.41037C10.5956 8.22039 10.5784 7.94656 10.4025 7.77739Z" fill="#8DD83D"/>
</g>
<g id="Group_2">
<path id="Shape_9" d="M5.6803 21.4277C4.88989 22.8451 4.70862 23.667 4.70327 23.6934C4.63203 24.1202 4.59172 24.9603 4.93459 25.2477C8.04024 27.8547 11.0116 28.9671 14.8702 28.9671C15.5772 28.9671 16.2371 28.9249 16.8653 28.8498C12.0316 28.2603 7.91876 25.4153 5.6803 21.4277Z" fill="#79C422"/>
<path id="Shape_10" d="M3.86913 14.5039C3.86913 10.9495 5.18882 7.69671 7.37438 5.17854C6.02106 4.31858 5.23352 4.18455 4.87805 4.18455C4.80623 4.18455 4.7388 4.18938 4.67749 4.19905C4.5774 4.21467 4.48514 4.2604 4.41313 4.32974C-0.375906 8.94929 -1.48091 16.2608 2.1569 22.0326C2.2463 22.1744 2.40388 22.2577 2.56987 22.2577C2.8199 22.2577 3.02868 22.0727 3.05236 21.8309C3.14367 20.8991 3.47163 19.6122 4.28076 17.8811C4.01411 16.7971 3.86913 15.6674 3.86913 14.5039Z" fill="#79C422"/>
<path id="Shape_11" d="M10.3773 2.54122C12.2505 1.29998 14.4313 0.467903 16.7844 0.168237C13.8174 -0.21843 11.2244 0.26007 8.80315 1.36393C8.60755 1.45316 8.49619 1.65765 8.53019 1.86529C8.61118 2.36015 8.99759 2.17519 10.3773 2.54122Z" fill="#79C422"/>
</g>
</g>
</svg>
